<svg id="Group_101" data-name="Group 101" xmlns="http://www.w3.org/2000/svg" xmlns:xlink="http://www.w3.org/1999/xlink" width="35" height="35" viewBox="0 0 35 35">
  <defs>
    <clipPath id="clip-path">
      <rect id="Rectangle_20" data-name="Rectangle 20" width="13.71" height="20.023" transform="translate(0 0)" fill="#fff"/>
    </clipPath>
  </defs>
  <rect id="Rectangle_7" data-name="Rectangle 7" width="35" height="35" rx="4" fill="#ffd800"/>
  <g id="Group_17" data-name="Group 17" transform="translate(27.512 10.645) rotate(90)">
    <g id="Group_16" data-name="Group 16" clip-path="url(#clip-path)">
      <path id="Path_2" data-name="Path 2" d="M0,.613V2.435A1.548,1.548,0,0,0,.622,3.676L8.454,9.535a.6.6,0,0,1,0,.954L.622,16.347A1.552,1.552,0,0,0,0,17.589v1.822a.612.612,0,0,0,.979.49l12.437-9.3a.731.731,0,0,0,0-1.171L.979.124A.612.612,0,0,0,0,.613" transform="translate(0.001 0)" fill="#fff"/>
      <path id="Path_3" data-name="Path 3" d="M.979.123,3.8,2.23A.731.731,0,0,1,3.8,3.4L.98,5.508A.612.612,0,0,1,0,5.017V.614A.613.613,0,0,1,.979.123" transform="translate(0 7.196)" fill="#fff"/>
    </g>
  </g>
</svg>
